<?xml version="1.0" ?><svg height="20px" version="1.1" viewBox="0 0 20 20" width="20px" xmlns="http://www.w3.org/2000/svg" xmlns:xlink="http://www.w3.org/1999/xlink"><title/><g fill="none" fill-rule="evenodd" id="Icons" stroke="none" stroke-linecap="round" stroke-linejoin="round" stroke-width="1"><g id="Group" stroke="#000000" stroke-width="2" transform="translate(-2.000000, -2.000000)"><g id="Shape"><path d="M3,17.2077372 C3,17.2077372 7.39630244,15.1713575 7.39630244,8.26027843 C7.39630244,5.71409196 9.45744179,3.65 11.999986,3.65 C14.5425303,3.65 16.6036696,5.71409196 16.6036696,8.26027843 C16.6036696,15.1713558 21,17.2077092 21,17.2077092 C20.2391476,17.9228729 18.6215669,17.4865265 17.7003994,17.9943767 C16.7929246,18.4946742 16.2968793,20.1003502 15.2696841,20.363537 C14.2764089,20.6180342 13.0724684,19.4566689 11.999986,19.4566689 C10.9275037,19.4566689 9.7235878,20.6180359 8.73032252,20.3635461 C7.70311986,20.1003617 7.20706474,18.4946849 6.29958252,17.9943874 C5.3784216,17.4865388 3.76084832,17.9228935 3,17.2077372 Z"/><line x1="17.0414799" x2="19.2343459" y1="11.7731278" y2="10.8947249"/><line x1="6.95862449" x2="4.7656261" y1="11.7731813" y2="10.8947249"/></g></g></g></svg>